<svg xmlns="http://www.w3.org/2000/svg" viewBox="0 0 216.58 37.92"><defs><style>.cls-1{fill:#2155bf;fill-rule:evenodd;}</style></defs><g id="Layer_2" data-name="Layer 2"><g id="Layer_1-2" data-name="Layer 1"><path d="M69.46,15.82c-.61-5-4.42-7.94-9.47-7.94-5.77,0-10.17,4.07-10.17,11.21S54.15,30.3,60,30.3c5.59,0,9-3.72,9.47-7.74l-4.67,0a4.46,4.46,0,0,1-4.73,3.68c-3.31,0-5.56-2.46-5.56-7.13S56.72,12,60.09,12a4.41,4.41,0,0,1,4.7,3.86ZM83.17,23a3.08,3.08,0,0,1-3.12,3.35c-1.71,0-2.82-1.21-2.83-3.13V13.64H72.68V24.06c0,3.82,2.25,6.15,5.54,6.15a5,5,0,0,0,5-3.18h.18v3h4.35V13.64H83.17ZM96,30.31a5,5,0,0,0,4.78-2.58h.13V30h4.3V19c0-3.9-3.3-5.54-6.94-5.54-3.92,0-6.5,1.88-7.13,4.86l4.2.34a2.74,2.74,0,0,1,2.91-1.88c1.54,0,2.43.77,2.43,2.12v.06c0,1.06-1.12,1.19-4,1.47-3.24.3-6.14,1.39-6.14,5C90.58,28.67,92.89,30.31,96,30.31Zm1.3-3.13c-1.4,0-2.4-.65-2.4-1.9s1.06-1.91,2.65-2.13a10.81,10.81,0,0,0,3.16-.74v1.74A3.14,3.14,0,0,1,97.31,27.18Zm16-6.64c0-2.11,1.27-3.35,3.1-3.35s2.92,1.2,2.91,3.2V30h4.54V19.58c0-3.81-2.24-6.16-5.65-6.16a5,5,0,0,0-4.92,3.1h-.19V13.64h-4.33V30h4.54Zm22.83-6.9H133V9.72h-4.54v3.92h-2.23v3.41h2.23v8.52c0,3.2,2.17,4.79,5.46,4.65a8.77,8.77,0,0,0,2.46-.42l-.71-3.38a6.61,6.61,0,0,1-1.13.15c-.91,0-1.54-.34-1.54-1.6V17.05h3.08Zm10.17,16.68c5,0,8.06-3.4,8.06-8.44s-3.09-8.46-8.06-8.46-8.05,3.39-8.05,8.46S141.32,30.32,146.28,30.32Zm0-3.52c-2.29,0-3.47-2.09-3.47-4.95s1.18-5,3.47-5,3.42,2.11,3.42,5S148.55,26.8,146.31,26.8ZM159.44,8.18h-5.12L161.85,30h5.94l7.53-21.82H170.2l-5.28,16.58h-.21Zm21.27,22.13a5,5,0,0,0,4.78-2.58h.13V30h4.3V19c0-3.9-3.3-5.54-6.95-5.54-3.92,0-6.49,1.88-7.12,4.86l4.2.34a2.72,2.72,0,0,1,2.9-1.88c1.55,0,2.43.77,2.43,2.12v.06c0,1.06-1.12,1.19-4,1.47-3.24.3-6.15,1.39-6.15,5C175.27,28.67,177.58,30.31,180.71,30.31Zm1.3-3.13c-1.4,0-2.4-.65-2.4-1.9s1-1.91,2.65-2.13a10.66,10.66,0,0,0,3.15-.74v1.74A3.13,3.13,0,0,1,182,27.18Zm16-19h-4.54V30H198Zm11.09,22.14c4.05,0,6.78-2,7.42-5l-4.2-.27a3.09,3.09,0,0,1-3.14,1.89c-2.27,0-3.71-1.5-3.71-3.94h11.14V21.73c0-5.56-3.36-8.31-7.69-8.31-4.81,0-7.93,3.42-7.93,8.47S204,30.32,209.07,30.32Zm-3.63-10.15A3.46,3.46,0,0,1,209,16.81a3.22,3.22,0,0,1,3.34,3.36Z"/><path class="cls-1" d="M38.11,0H.2V37.74l-.2.18H.2v-.18l19-16.89,7,6.2v-2.4h5.05v6.9l7,6.19v.18h.2l-.2-.18Z"/></g></g></svg>